<?xml version="1.0" encoding="UTF-8" standalone="no"?>
<svg
   xmlns:dc="http://purl.org/dc/elements/1.1/"
   xmlns:cc="http://creativecommons.org/ns#"
   xmlns:rdf="http://www.w3.org/1999/02/22-rdf-syntax-ns#"
   xmlns:svg="http://www.w3.org/2000/svg"
   xmlns="http://www.w3.org/2000/svg"
   xmlns:sodipodi="http://sodipodi.sourceforge.net/DTD/sodipodi-0.dtd"
   xmlns:inkscape="http://www.inkscape.org/namespaces/inkscape"
   width="40cm"
   height="13cm"
   viewBox="0 0 400 129.99999"
   version="1.1"
   id="svg8"
   inkscape:version="1.0 (4035a4fb49, 2020-05-01)"
   sodipodi:docname="PropyLogo.svg">
  <defs
     id="defs2" />
  <sodipodi:namedview
     id="base"
     pagecolor="#ffffff"
     bordercolor="#666666"
     borderopacity="1.0"
     inkscape:pageopacity="0.0"
     inkscape:pageshadow="2"
     inkscape:zoom="0.49497474"
     inkscape:cx="602.61639"
     inkscape:cy="191.00864"
     inkscape:document-units="mm"
     inkscape:current-layer="layer1"
     inkscape:document-rotation="0"
     showgrid="true"
     units="cm"
     inkscape:window-width="1366"
     inkscape:window-height="715"
     inkscape:window-x="-8"
     inkscape:window-y="-8"
     inkscape:window-maximized="1">
    <inkscape:grid
       type="xygrid"
       id="grid10"
       dotted="true" />
  </sodipodi:namedview>
  <metadata
     id="metadata5">
    <rdf:RDF>
      <cc:Work
         rdf:about="">
        <dc:format>image/svg+xml</dc:format>
        <dc:type
           rdf:resource="http://purl.org/dc/dcmitype/StillImage" />
        <dc:title></dc:title>
      </cc:Work>
    </rdf:RDF>
  </metadata>
  <g
     inkscape:label="Livello 1"
     inkscape:groupmode="layer"
     id="layer1">
    <circle
       style="opacity:0.495627;fill:none;fill-opacity:1;stroke:#000000;stroke-width:0.1;stroke-linecap:round;stroke-linejoin:bevel;stroke-miterlimit:4;stroke-dasharray:none"
       id="path903"
       cx="164.80687"
       cy="52.607479"
       r="48" />
    <circle
       style="fill:none;stroke:#000000;stroke-width:0.1;stroke-linecap:round;stroke-linejoin:bevel;stroke-miterlimit:4;stroke-dasharray:none"
       id="path14"
       cx="164.80687"
       cy="52.607479"
       r="50" />
    <circle
       style="fill:none;stroke:#000000;stroke-width:0.1;stroke-linecap:round;stroke-linejoin:bevel;stroke-miterlimit:4;stroke-dasharray:none"
       id="path845"
       cx="164.80687"
       cy="52.607479"
       r="10" />
    <path
       style="fill:none;stroke:#000000;stroke-width:0.264583px;stroke-linecap:butt;stroke-linejoin:miter;stroke-opacity:1"
       d="m 164.80686,42.607476 c 0,0 -5.82212,-26.922817 -1,-38.999998 0.1748,-0.437798 0.54121,-0.891694 1,-1.000001 1.02589,-0.242181 2.20368,0.309358 3,1.000001 0.56308,0.488358 0.82875,1.274582 1,1.999998 0.0766,0.324417 0,0.666667 0,1.000001 0,0.333333 0.0143,0.666971 0,1 -0.50046,11.698745 -3,34.999999 -3,34.999999"
       id="path847"
       sodipodi:nodetypes="cssssssc" />
    <path
       sodipodi:nodetypes="cssssssc"
       id="path849"
       d="m 164.80686,62.607474 c 0,0 5.82212,26.92282 1,38.999996 -0.1748,0.4378 -0.54121,0.89169 -1,1 -1.02589,0.24218 -2.20368,-0.30936 -3,-1 -0.56308,-0.48836 -0.82875,-1.27458 -1,-1.999996 -0.0766,-0.32441 0,-0.66666 0,-1 0,-0.33333 -0.0143,-0.66697 0,-1 0.50046,-11.69874 3,-35 3,-35"
       style="fill:none;stroke:#000000;stroke-width:0.264583px;stroke-linecap:butt;stroke-linejoin:miter;stroke-opacity:1" />
    <path
       sodipodi:nodetypes="cssssssc"
       id="path851"
       d="m 174.80686,51.607477 c 0,0 26.92282,-5.82212 39,-1 0.4378,0.1748 0.89169,0.54121 1,1 0.24218,1.02589 -0.30936,2.20368 -1,3 -0.48836,0.56308 -1.27458,0.828747 -2,0.999997 -0.32441,0.0766 -0.66666,0 -1,0 -0.33333,0 -0.66697,0.0143 -1,0 -11.69874,-0.500457 -35,-2.999997 -35,-2.999997"
       style="fill:none;stroke:#000000;stroke-width:0.264583px;stroke-linecap:butt;stroke-linejoin:miter;stroke-opacity:1" />
    <path
       style="fill:none;stroke:#000000;stroke-width:0.264583px;stroke-linecap:butt;stroke-linejoin:miter;stroke-opacity:1"
       d="m 154.80686,53.607477 c 0,0 -26.92282,5.822117 -39,1 -0.4378,-0.1748 -0.89169,-0.54121 -1,-1 -0.24218,-1.02589 0.30936,-2.20368 1,-3 0.48836,-0.56308 1.27458,-0.82875 2,-1 0.32441,-0.0766 0.66666,0 1,0 0.33333,0 0.66697,-0.0143 1,0 11.69874,0.50046 35,3 35,3"
       id="path853"
       sodipodi:nodetypes="cssssssc" />
    <circle
       style="fill:none;stroke:#000000;stroke-width:0.1;stroke-linecap:round;stroke-linejoin:bevel;stroke-miterlimit:4;stroke-dasharray:none"
       id="path855"
       cx="164.80687"
       cy="52.607479"
       r="2" />
    <circle
       style="fill:none;stroke:#000000;stroke-width:0.1;stroke-linecap:round;stroke-linejoin:bevel;stroke-miterlimit:4;stroke-dasharray:none"
       id="path857"
       cx="164.80687"
       cy="52.607479"
       r="3" />
    <path
       style="opacity:0.22449;fill:#000000;fill-opacity:1;stroke:#000000;stroke-width:0.0178572;stroke-linecap:round;stroke-linejoin:bevel;stroke-miterlimit:4;stroke-dasharray:none"
       d="m 163.67425,62.467804 c -2.19254,-0.25233 -4.29422,-1.27406 -5.87753,-2.85738 -2.38651,-2.3865 -3.38433,-5.749762 -2.68995,-9.066703 0.16201,-0.773874 0.39095,-1.443712 0.74282,-2.173364 0.55586,-1.152641 1.05958,-1.863087 1.96288,-2.768446 1.14244,-1.145038 2.41095,-1.92768 3.92612,-2.422324 2.52518,-0.824368 5.19013,-0.617072 7.55805,0.587904 4.66127,2.372 6.68918,7.974086 4.61871,12.759153 -1.42048,3.28289 -4.48523,5.54823 -8.04412,5.94591 -0.50011,0.0559 -1.69253,0.0533 -2.19698,-0.005 z m 1.90897,-6.89112 c 1.58224,-0.404665 2.56342,-1.99893 2.22517,-3.615553 -0.22018,-1.052335 -1.10386,-2.004121 -2.1447,-2.310008 -0.36884,-0.108397 -0.92164,-0.142589 -1.3151,-0.08135 -1.4517,0.225959 -2.5311,1.424977 -2.5994,2.887448 -0.0574,1.228802 0.55543,2.299346 1.65027,2.882892 0.60891,0.324551 1.47354,0.418221 2.18376,0.236571 z"
       id="path859" />
    <path
       style="opacity:0.495627;fill:#000000;fill-opacity:1;stroke:#000000;stroke-width:0.0178572;stroke-linecap:round;stroke-linejoin:bevel;stroke-miterlimit:4;stroke-dasharray:none"
       d="m 164.33062,54.467611 c -0.9468,-0.261104 -1.57549,-1.206164 -1.42132,-2.136568 0.0703,-0.423953 0.26054,-0.793965 0.55836,-1.08571 1.07889,-1.056894 2.8811,-0.518636 3.20976,0.958646 0.13635,0.612868 -0.028,1.214313 -0.46359,1.696053 -0.46957,0.519369 -1.22854,0.748118 -1.88321,0.567579 z"
       id="path861" />
    <path
       style="opacity:1;fill:#ffff00;fill-opacity:1;stroke:#000000;stroke-width:0.0178572;stroke-linecap:round;stroke-linejoin:bevel;stroke-miterlimit:4;stroke-dasharray:none"
       d="m 164.12367,55.452024 c -0.9454,-0.228551 -1.75269,-0.976655 -2.08651,-1.933542 -0.17662,-0.506288 -0.18907,-1.241478 -0.0296,-1.74634 0.27681,-0.876223 0.98544,-1.619943 1.82451,-1.91485 1.08112,-0.379982 2.21177,-0.122066 3.02655,0.690387 1.85269,1.847409 0.52409,4.998905 -2.09771,4.975845 -0.19489,-0.002 -0.48166,-0.0339 -0.63726,-0.0715 z m 1.22973,-0.847517 c 0.99995,-0.260385 1.66607,-1.290659 1.49642,-2.314464 -0.14782,-0.892061 -0.83024,-1.575769 -1.72273,-1.725973 -1.36444,-0.229631 -2.59364,1.004883 -2.35959,2.369775 0.21202,1.236427 1.37301,1.9865 2.5859,1.670662 z"
       id="path863" />
    <path
       style="fill:none;stroke:#000000;stroke-width:0.264583px;stroke-linecap:butt;stroke-linejoin:miter;stroke-opacity:1"
       d="m 115.80686,50.607476 19,1 v -1"
       id="path865" />
    <path
       id="path867"
       d="m 167.80686,3.607477 -1,19 h 1"
       style="fill:none;stroke:#000000;stroke-width:0.264583px;stroke-linecap:butt;stroke-linejoin:miter;stroke-opacity:1" />
    <path
       style="fill:none;stroke:#000000;stroke-width:0.264583px;stroke-linecap:butt;stroke-linejoin:miter;stroke-opacity:1"
       d="m 213.80686,54.607477 -19,-1 v 1"
       id="path869" />
    <path
       id="path871"
       d="m 161.80686,101.60747 1,-18.999996 h -1"
       style="fill:none;stroke:#000000;stroke-width:0.264583px;stroke-linecap:butt;stroke-linejoin:miter;stroke-opacity:1" />
    <path
       style="opacity:0.495627;fill:#ffff00;fill-opacity:1;stroke:#000000;stroke-width:0.0357143;stroke-linecap:round;stroke-linejoin:bevel;stroke-miterlimit:4;stroke-dasharray:none"
       d="m 125.67838,50.950526 c -4.57351,-0.249817 -8.57061,-0.458473 -8.88244,-0.463677 -0.5196,-0.0087 -0.55165,-0.02106 -0.38363,-0.148135 0.10083,-0.07627 0.41975,-0.231635 0.70871,-0.34526 0.47491,-0.186751 0.67511,-0.204586 2.08452,-0.185714 2.31476,0.031 5.87059,0.252818 12.37872,0.772208 3.17021,0.253005 3.02381,0.225446 3.02381,0.569188 0,0.25442 -0.0273,0.278153 -0.30711,0.267401 -0.16891,-0.0065 -4.04907,-0.216194 -8.62258,-0.466011 z"
       id="path873" />
    <path
       style="opacity:0.495627;fill:#ffff00;fill-opacity:1;stroke:#000000;stroke-width:0.0357143;stroke-linecap:round;stroke-linejoin:bevel;stroke-miterlimit:4;stroke-dasharray:none"
       d="m 161.4169,100.78663 c -0.42898,-0.847936 -0.47644,-1.215516 -0.41243,-3.194616 0.0693,-2.14292 0.32913,-6.17257 0.67655,-10.49218 0.38618,-4.80174 0.31296,-4.29948 0.62684,-4.29948 0.26369,0 0.27036,0.0124 0.26705,0.4961 -0.007,1.01411 -0.91738,17.654096 -0.96873,17.705446 -0.0294,0.0293 -0.11453,-0.0675 -0.18928,-0.21527 z"
       id="path875" />
    <path
       style="opacity:0.495627;fill:#ffff00;fill-opacity:1;stroke:#000000;stroke-width:0.0357143;stroke-linecap:round;stroke-linejoin:bevel;stroke-miterlimit:4;stroke-dasharray:none"
       d="m 210.29779,55.431774 c -2.87782,-0.08737 -13.04017,-0.792094 -14.90644,-1.033709 -0.37272,-0.04826 -0.40158,-0.07259 -0.40158,-0.338505 v -0.286509 l 0.87407,0.05998 c 1.06463,0.07305 16.81258,0.901385 17.21705,0.905605 0.27358,0.0029 0.27882,0.0099 0.10464,0.141676 -0.28271,0.213818 -1.10053,0.494845 -1.56853,0.538972 -0.23183,0.02185 -0.82547,0.02748 -1.31921,0.01249 z"
       id="path877" />
    <path
       style="opacity:0.495627;fill:#333333;fill-opacity:1;stroke:#000000;stroke-width:0.190895;stroke-linecap:round;stroke-linejoin:bevel;stroke-miterlimit:4;stroke-dasharray:none"
       d=""
       id="path893"
       transform="scale(0.26458333)" />
    <path
       style="opacity:0.495627;fill:#333333;fill-opacity:1;stroke:#000000;stroke-width:0.0505076;stroke-linecap:round;stroke-linejoin:bevel;stroke-miterlimit:4;stroke-dasharray:none"
       d="m 125.0886,56.203064 c -2.4668,-0.18216 -4.79335,-0.53496 -6.64145,-1.007126 -1.98707,-0.50767 -2.82608,-0.838542 -3.20723,-1.264804 -0.39274,-0.439216 -0.32866,-1.399013 0.15348,-2.298703 0.33879,-0.632219 0.43368,-0.715507 0.85549,-0.750969 0.26094,-0.02193 4.44687,0.173506 9.30207,0.434313 4.8552,0.260808 8.95643,0.474197 9.11386,0.474197 0.23821,0 0.28622,-0.07873 0.28622,-0.469299 0,-0.465532 0.004,-0.468746 0.50113,-0.400024 0.27563,0.0381 2.86315,0.284052 5.75007,0.546555 2.88691,0.262502 7.0964,0.66802 9.35443,0.901153 3.95457,0.408294 4.10702,0.434509 4.1467,0.713076 0.05,0.351062 0.12533,0.326578 -2.58026,0.838758 -4.59857,0.870529 -10.59558,1.678783 -15.43481,2.080253 -2.94973,0.2447 -9.48403,0.35885 -11.5997,0.20262 z"
       id="path895" />
    <path
       style="opacity:0.495627;fill:#333333;fill-opacity:1;stroke:#000000;stroke-width:0.0505076;stroke-linecap:round;stroke-linejoin:bevel;stroke-miterlimit:4;stroke-dasharray:none"
       d="m 163.34843,102.26002 c -0.2205,-0.0864 -0.59634,-0.26382 -0.83521,-0.39417 -0.54931,-0.29972 -0.55172,0.45957 0.0334,-10.519986 0.25656,-4.81419 0.46676,-8.79818 0.4671,-8.8533 2.6e-4,-0.0551 -0.21418,-0.10023 -0.47671,-0.10023 h -0.47734 l 0.0796,-0.70158 c 0.0438,-0.38587 0.23072,-2.35532 0.41538,-4.37654 0.18465,-2.02123 0.57409,-6.03876 0.86542,-8.92785 0.29133,-2.88909 0.52969,-5.33961 0.52969,-5.44561 0,-0.28212 0.63402,-0.24596 0.72109,0.0411 0.15049,0.49617 0.88179,4.63227 1.27,7.18287 1.96781,12.92868 2.08411,22.88826 0.34211,29.29581 -0.64551,2.374346 -1.05486,2.984346 -1.9909,2.966816 -0.29852,-0.006 -0.72316,-0.0809 -0.94366,-0.16736 z"
       id="path897" />
    <path
       style="opacity:0.495627;fill:#333333;fill-opacity:1;stroke:#000000;stroke-width:0.0505076;stroke-linecap:round;stroke-linejoin:bevel;stroke-miterlimit:4;stroke-dasharray:none"
       d="m 191.2781,54.04291 c -1.46999,-0.139237 -5.67948,-0.5529 -9.35444,-0.91925 -3.67495,-0.36635 -6.7569,-0.665961 -6.84878,-0.665803 -0.0919,1.59e-4 -0.16704,-0.15005 -0.16704,-0.333798 0,-0.183748 0.0234,-0.334087 0.0521,-0.334087 0.0286,0 0.64504,-0.122502 1.36975,-0.272224 1.74176,-0.359849 6.29665,-1.111152 8.8012,-1.451708 6.95946,-0.946314 13.74007,-1.351611 18.30796,-1.094319 3.77376,0.212563 5.9581,0.529746 8.43188,1.224364 1.60059,0.449443 2.38789,0.809742 2.58852,1.184635 0.25461,0.475745 0.15701,1.393084 -0.22939,2.155952 -0.35864,0.708065 -0.38254,0.726514 -0.99169,0.765844 -0.56668,0.03658 -14.72406,-0.653192 -17.51674,-0.85345 l -1.1693,-0.08385 v 0.481907 c 0,0.415552 -0.0414,0.479639 -0.30067,0.465425 -0.16537,-0.0091 -1.50339,-0.130405 -2.97337,-0.269639 z"
       id="path899" />
    <path
       style="opacity:0.495627;fill:#333333;fill-opacity:1;stroke:#000000;stroke-width:0.0505076;stroke-linecap:round;stroke-linejoin:bevel;stroke-miterlimit:4;stroke-dasharray:none"
       d="m 165.05585,42.407863 c -0.2598,-0.323186 -1.38795,-6.932186 -1.96846,-11.531729 -1.44849,-11.476937 -1.31204,-19.975505 0.41304,-25.724694 0.61084,-2.035757 1.07498,-2.531864 2.20038,-2.351905 0.62045,0.09921 1.45563,0.492361 1.7183,0.808863 0.148,0.178335 0.0961,1.768306 -0.31351,9.598062 -0.27,5.161375 -0.48915,9.429419 -0.48701,9.484542 0.002,0.05513 0.21508,0.100227 0.47319,0.100227 0.46541,0 0.46874,0.0042 0.40073,0.501132 -0.0377,0.275621 -0.28225,2.816352 -0.54341,5.646068 -0.9929,10.758492 -1.31012,13.557273 -1.54162,13.601533 -0.11701,0.02236 -0.27524,-0.03707 -0.35163,-0.132099 z"
       id="path901" />
    <path
       style="opacity:0.495627;fill:#feff00;fill-opacity:1;stroke:#000000;stroke-width:0.0178572;stroke-linecap:round;stroke-linejoin:bevel;stroke-miterlimit:4;stroke-dasharray:none"
       d="m 166.98661,22.094198 c 0.0159,-0.201391 0.22124,-4.086868 0.45636,-8.634394 0.23511,-4.547526 0.43893,-8.359648 0.45293,-8.471384 l 0.0255,-0.203158 0.24298,0.01418 0.24298,0.01418 0.11994,0.354354 c 0.11758,0.34739 0.11986,0.380339 0.11609,1.677268 -0.002,0.727604 -0.0295,1.748142 -0.0608,2.267858 -0.25673,4.262503 -0.39821,6.234059 -0.8358,11.646391 -0.0662,0.818555 -0.13026,1.536118 -0.14239,1.594586 -0.0202,0.0973 -0.0485,0.106307 -0.33437,0.106307 h -0.31231 z"
       id="path905" />
    <path
       style="opacity:0.495627;fill:#feff00;fill-opacity:1;stroke:#000000;stroke-width:0.00446429;stroke-linecap:round;stroke-linejoin:bevel;stroke-miterlimit:4;stroke-dasharray:none"
       d="m 168.05221,4.662636 c -0.0845,-0.0061 -0.1555,-0.01302 -0.15789,-0.0154 -0.005,-0.005 0.0319,-0.704403 0.0375,-0.70997 0.006,-0.0061 0.14329,0.183843 0.20679,0.286327 0.0596,0.09625 0.2045,0.37755 0.21991,0.427011 0.008,0.02588 0.006,0.02653 -0.0723,0.02484 -0.0443,-0.0011 -0.14962,-0.0067 -0.23408,-0.01281 z"
       id="path907" />
    <path
       style="opacity:1;fill:#000000;fill-opacity:1;stroke:#000000;stroke-width:0.0357143;stroke-linecap:round;stroke-linejoin:bevel;stroke-miterlimit:4;stroke-dasharray:none"
       d="m 160.17837,102.29356 c -8.4224,-0.82164 -16.38754,-3.690356 -23.39783,-8.426976 -12.749,-8.61406 -20.9264,-23.02072 -21.78214,-38.37502 l -0.0652,-1.170265 0.41649,0.237623 c 0.22907,0.130693 0.62911,0.314047 0.88897,0.407455 0.25986,0.09341 0.48391,0.177274 0.49789,0.186367 0.014,0.0091 0.0869,0.7138 0.16209,1.56601 0.35304,4.00294 1.03829,7.29935 2.31587,11.14062 3.72814,11.20927 11.40015,20.56753 21.73434,26.51137 5.30318,3.05019 11.85712,5.23104 17.85937,5.942766 0.70162,0.0832 1.45357,0.17359 1.67099,0.20088 0.36169,0.0454 0.41972,0.0929 0.68221,0.55796 0.24961,0.4423 0.66594,0.84254 1.29833,1.24817 0.2385,0.15298 -0.5299,0.1439 -2.28136,-0.027 z"
       id="path909" />
    <path
       style="opacity:1;fill:#000000;fill-opacity:1;stroke:#000000;stroke-width:0.0357143;stroke-linecap:round;stroke-linejoin:bevel;stroke-miterlimit:4;stroke-dasharray:none"
       d="m 165.65129,102.22649 c 0.13157,-0.1725 0.34202,-0.58741 0.46766,-0.92203 l 0.22843,-0.60841 1.07323,-0.0652 c 12.53736,-0.761696 23.78369,-5.983566 32.3724,-15.031096 7.14552,-7.52721 11.67389,-17.35232 12.82385,-27.82354 0.0811,-0.73835 0.14746,-1.54903 0.14746,-1.8015 0,-0.42569 0.0225,-0.46979 0.3098,-0.606789 0.46011,-0.219409 0.89233,-0.613249 1.26629,-1.153824 l 0.33314,-0.481584 -0.0565,1.464656 c -0.24104,6.244031 -1.99163,13.091411 -4.86783,19.040551 -2.51585,5.20375 -5.56416,9.4865 -9.6892,13.61288 -4.07864,4.07995 -8.10527,6.96862 -13.23429,9.49415 -6.42122,3.161806 -12.81034,4.780196 -20.29796,5.141536 l -1.11566,0.0538 z"
       id="path911" />
    <path
       style="opacity:1;fill:#000000;fill-opacity:1;stroke:#000000;stroke-width:0.0357143;stroke-linecap:round;stroke-linejoin:bevel;stroke-miterlimit:4;stroke-dasharray:none"
       d="m 214.35309,50.715425 c -0.1396,-0.122949 -0.53073,-0.315693 -0.86919,-0.428318 -0.7086,-0.23581 -0.62449,-0.0058 -0.8133,-2.224235 -0.74647,-8.77043 -4.30001,-17.759434 -9.86189,-24.946428 -2.41568,-3.121527 -5.82528,-6.491948 -8.91307,-8.810675 l -1.10225,-0.827717 1.45025,-0.02617 1.45026,-0.02617 0.3851,0.304866 c 1.93165,1.52923 4.99105,4.507277 6.68147,6.503805 6.52928,7.711693 10.56127,17.049162 11.64934,26.978051 0.15224,1.38925 0.30012,3.734631 0.23516,3.72953 -0.0209,-0.0016 -0.15226,-0.103582 -0.29188,-0.226531 z"
       id="path913" />
    <path
       style="opacity:1;fill:#000000;fill-opacity:1;stroke:#000000;stroke-width:0.0357143;stroke-linecap:round;stroke-linejoin:bevel;stroke-miterlimit:4;stroke-dasharray:none"
       d="m 191.64489,12.704641 c -6.13993,-4.198739 -13.74843,-7.006 -21.30606,-7.861157 -1.25526,-0.142034 -1.57399,-0.207693 -1.65282,-0.340477 -0.43032,-0.724805 -0.70355,-1.035973 -1.2018,-1.368697 -0.68211,-0.455496 -0.75474,-0.444336 1.5616,-0.239999 9.38557,0.827951 18.27917,4.225227 25.73724,9.831404 l 0.77581,0.583165 -0.77581,0.0604 c -0.4267,0.03322 -1.07347,0.0572 -1.43727,0.05328 l -0.66146,-0.0071 -1.03943,-0.710809 z"
       id="path915" />
    <path
       style="opacity:1;fill:#000000;fill-opacity:1;stroke:#000000;stroke-width:0.0357143;stroke-linecap:round;stroke-linejoin:bevel;stroke-miterlimit:4;stroke-dasharray:none"
       d="m 115,50 c 0.2865,-7.402756 2.65925,-15.466933 6.53772,-22.219528 3.33284,-5.802612 7.94794,-11.022386 13.30608,-15.049452 5.15025,-3.870823 11.1259,-6.763512 17.30257,-8.37582 3.52568,-0.92031 7.03103,-1.453618 10.3408,-1.573254 l 1.64735,-0.05955 -0.20828,0.292495 c -0.11455,0.160872 -0.30909,0.561083 -0.43232,0.88936 l -0.22404,0.596865 -1.02604,0.07135 c -7.15205,0.497316 -13.00346,2.055836 -19.02715,5.067871 -6.58061,3.290512 -12.45735,8.2026 -16.91394,14.137569 -5.12782,6.828866 -8.37859,15.089108 -9.30457,23.643052 -0.0799,0.738355 -0.14533,1.53434 -0.14533,1.768862 0,0.410654 -0.0183,0.438245 -0.49609,0.747199 -0.53371,0.34512 -0.74838,0.558993 -1.15393,1.149667 l -0.25951,0.377976 z"
       id="path917" />
    <text
       xml:space="preserve"
       style="font-style:normal;font-weight:normal;font-size:117.917px;line-height:1.25;font-family:sans-serif;fill:#000000;fill-opacity:1;stroke:none;stroke-width:2.94793"
       x="0.30262652"
       y="94.64595"
       id="text921"
       transform="scale(0.92230648,1.0842383)"><tspan
         sodipodi:role="line"
         id="tspan919"
         x="0.30262652"
         y="94.64595"
         style="stroke-width:2.94793">Pr</tspan></text>
    <text
       transform="scale(0.92230648,1.0842383)"
       id="text925"
       y="94.637268"
       x="225.55692"
       style="font-style:normal;font-weight:normal;font-size:117.917px;line-height:1.25;font-family:sans-serif;fill:#000000;fill-opacity:1;stroke:none;stroke-width:2.94793"
       xml:space="preserve"><tspan
         style="stroke-width:2.94793"
         y="94.637268"
         x="225.55692"
         id="tspan923"
         sodipodi:role="line">P</tspan></text>
    <text
       xml:space="preserve"
       style="font-style:normal;font-weight:normal;font-size:117.917px;line-height:1.25;font-family:sans-serif;fill:#000000;fill-opacity:1;stroke:none;stroke-width:2.94793"
       x="291.04807"
       y="94.514023"
       id="text931"
       transform="scale(0.92230648,1.0842383)"><tspan
         sodipodi:role="line"
         id="tspan929"
         x="291.04807"
         y="94.514023"
         style="stroke-width:2.94793">py</tspan></text>
  </g>
</svg>
